<svg id="圖層_1" data-name="圖層 1" xmlns="http://www.w3.org/2000/svg" xmlns:xlink="http://www.w3.org/1999/xlink" viewBox="0 0 355 111"><defs><style>.cls-1{fill:url(#未命名漸層);}.cls-2{fill:url(#未命名漸層_2);}.cls-3{fill:url(#未命名漸層_3);}.cls-4{fill:url(#未命名漸層_4);}.cls-5{fill:url(#未命名漸層_5);}.cls-6{fill:url(#未命名漸層_6);}.cls-7{fill:#b28247;}.cls-8{fill:url(#未命名漸層_7);}.cls-9{fill:url(#未命名漸層_8);}</style><linearGradient id="未命名漸層" x1="140.01" y1="142.32" x2="140.01" y2="96.95" gradientTransform="matrix(1, 0, 0, -1, 0, 171.9)" gradientUnits="userSpaceOnUse"><stop offset="0" stop-color="#d18f40"/><stop offset="0.43" stop-color="#d18f40"/><stop offset="0.52" stop-color="#cd8c3e"/><stop offset="0.63" stop-color="#c0823a"/><stop offset="0.74" stop-color="#ab7132"/><stop offset="0.85" stop-color="#8e5a27"/><stop offset="0.89" stop-color="#7f4f21"/></linearGradient><linearGradient id="未命名漸層_2" x1="194.98" y1="142.32" x2="194.98" y2="96.95" xlink:href="#未命名漸層"/><linearGradient id="未命名漸層_3" x1="249.9" y1="142.32" x2="249.9" y2="96.94" xlink:href="#未命名漸層"/><linearGradient id="未命名漸層_4" x1="306.35" y1="142.32" x2="306.35" y2="96.95" xlink:href="#未命名漸層"/><linearGradient id="未命名漸層_5" x1="305.12" y1="142.32" x2="305.12" y2="96.95" xlink:href="#未命名漸層"/><linearGradient id="未命名漸層_6" x1="311.24" y1="142.32" x2="311.24" y2="96.95" xlink:href="#未命名漸層"/><linearGradient id="未命名漸層_7" x1="65.69" y1="131.1" x2="65.69" y2="76.04" gradientTransform="matrix(1, 0, 0, -1, 0, 171.9)" gradientUnits="userSpaceOnUse"><stop offset="0" stop-color="#d18f40"/><stop offset="0.41" stop-color="#d18f40"/><stop offset="0.89" stop-color="#7f4f21"/></linearGradient><linearGradient id="未命名漸層_8" x1="65.86" y1="131.1" x2="65.86" y2="76.04" xlink:href="#未命名漸層_7"/></defs><title>logo</title><path class="cls-1" d="M154.64,74.45V58.83H143.42v11h9.67s-.71,4.65-4.65,4.65H135.78V54.15h26.51v20.3Zm-34.09,0c-3.66,0-3.87-4.31-3.87-4.31h2.8V56.55l-4.2,1.25V52.49l4.14-1.29V39h-4.2V34.32h4.2V29h7.33v5.28h3.73v4.65h-3.73V49l3.73-1.13v5.33l-3.73,1.15V74.45Zm36.08-23-1.07-4.21H141.62l-1.07,4.21h-7.48l-.68-3.36h1.55l4.91-19.18h7.55l-3.53,13.71h11.48L151.91,33h-4.45l1-4.18h9.84l5,19.24h1.55l-.68,3.42Z"/><path class="cls-2" d="M219.83,74.45c-11.45-.33-19.68-2.62-24.45-6.83l-.46-.29-.39.34c-4.65,4.14-12.86,6.43-24.4,6.82v-6.4c9.3-.62,14.59-2,17.41-4.65l1.08-1H170.86V57.93h19.3v-.5a6.35,6.35,0,0,0,0-1V53.85h9.06v3.05a3.38,3.38,0,0,0,0,.42v.59h19.85v4.49H201.32l1.1,1c2.85,2.62,8.24,4,17.41,4.65ZM170.13,53V48.48h20.14V45.24H171.59V40.75h18.69V37.26H170.7V32.81h7.17l-2-3.39h8.83l2.11,3.39h16.45l2.09-3.39h8.82l-2.09,3.39h7.27v4.45h-20V40.7h19.07v4.49H199.37v3.24h20.45v4.49Z"/><path class="cls-3" d="M274.52,69.8H251.84V43.32l4-1.16v22.4h6.91V40.17l4.4-1.29V62.05h-1.27l.68,2.85h7.75V31.2l-11.57,3.52V28.93h-6.91v7.84l-4,1.25v-6.2H244.7v8.4l-2.8.87V36.66h-4.4V30.12h-7.84v6.54h-4.45v4.88h4.45V69.43h-4.31v4.8h13c4.11,0,4.85-4.8,4.85-4.8h-5.56V41.54h3.76v4.83l3.42-1V74.31H270.2c3.67,0,4.38-4.42,4.38-4.42Z"/><polygon class="cls-4" points="310.35 32.63 310.35 29.24 302.29 29.24 302.29 32.63 282.7 32.63 282.7 37.32 329.99 37.32 329.99 32.63 310.35 32.63"/><polygon class="cls-5" points="329.53 42.9 319.58 42.9 322.29 38.22 314.51 38.22 311.83 42.9 300.8 42.9 298.14 38.22 290.39 38.22 293.05 42.9 283.37 42.9 283.37 68.61 280.71 68.61 285.29 74.37 290.68 74.37 290.68 47.58 329.53 47.58 329.53 42.9"/><path class="cls-6" d="M316.33,70.46V65.15h11.93v-3.8H316.33V56h12.58V52.23H316.33v-3.1h-8.71v3.1h-5.89L302.82,50h-6l-2.73,6.69H293l.39,1.46h6.38l1-2.15h6.86v5.35h-13v3.8h13v5.31H293.26v3.8h32.92c2.74,0,3.3-3.75,3.3-3.78h-13.2Z"/><path class="cls-7" d="M122.8,86.84h-3.28a.17.17,0,0,0-.17.17h0v1a.17.17,0,0,0,.17.17h2.14a2,2,0,0,1-.74,1.29,2.71,2.71,0,0,1-1.75.51,2.46,2.46,0,0,1-1.87-.73,3.19,3.19,0,0,1,0-4,2.48,2.48,0,0,1,1.89-.73,2.93,2.93,0,0,1,1.55.37,1.7,1.7,0,0,1,.79,1,.17.17,0,0,0,.15.12h1.05c.09,0,.17,0,.17-.17h0A2.63,2.63,0,0,0,121.74,84a4.12,4.12,0,0,0-2.48-.74,4,4,0,0,0-2.94,1.08,4.48,4.48,0,0,0,0,5.84,3.81,3.81,0,0,0,2.85,1.1,3.9,3.9,0,0,0,1.75-.37,2.93,2.93,0,0,0,.95-.74V91a.17.17,0,0,0,.17.15h.71a.17.17,0,0,0,.17-.15V87A.17.17,0,0,0,122.8,86.84Z"/><path class="cls-7" d="M131.26,89.94h-.14c-.23,0-.33,0-.36-.09a1.12,1.12,0,0,1-.08-.54V87.1a1.77,1.77,0,0,0-.64-1.55,3.5,3.5,0,0,0-2-.43,3.35,3.35,0,0,0-2,.51,2,2,0,0,0-.77,1.55.17.17,0,0,0,.17.17h1a.17.17,0,0,0,.17-.15.82.82,0,0,1,.36-.68,2.2,2.2,0,0,1,1.15-.23,2.09,2.09,0,0,1,1,.17.51.51,0,0,1,.25.48c0,.37-.77.5-1.24.54h-.37a5.7,5.7,0,0,0-1.21.17,2,2,0,0,0-.6.22,1.84,1.84,0,0,0-.64.62,1.74,1.74,0,0,0,.39,2.17,2.62,2.62,0,0,0,1.64.46,3.52,3.52,0,0,0,1.39-.26,2.56,2.56,0,0,0,.81-.54,1,1,0,0,0,.28.42A1.55,1.55,0,0,0,131,91h.4a.17.17,0,0,0,.14-.15V90a.15.15,0,0,0-.11-.08A.17.17,0,0,0,131.26,89.94Zm-1.87-1.55v.56a.91.91,0,0,1-.51.76,2.63,2.63,0,0,1-1.41.34,1.33,1.33,0,0,1-.77-.19.54.54,0,0,1-.25-.48.46.46,0,0,1,.22-.43,3.53,3.53,0,0,1,1.27-.28A9.3,9.3,0,0,0,129,88.5Z"/><path class="cls-7" d="M136,85.29H134.9V84.08a.17.17,0,0,0-.17-.17h-1a.17.17,0,0,0-.17.17h0v1.21h-.77a.17.17,0,0,0-.17.17h0v.85a.17.17,0,0,0,.17.17h.77v3.35a1.35,1.35,0,0,0,.4,1.05,1.72,1.72,0,0,0,1.18.36h.93a.15.15,0,0,0,.14-.15V90.2a.2.2,0,0,0-.17-.26h-.34a.9.9,0,0,1-.67-.08.53.53,0,0,1-.11-.37v-3.1H136a.17.17,0,0,0,.17-.17h0v-.85A.17.17,0,0,0,136,85.29Z"/><path class="cls-7" d="M143,85.86a1.84,1.84,0,0,0-.74-.57,2.85,2.85,0,0,0-1-.17,3.1,3.1,0,0,0-1.32.28,2.93,2.93,0,0,0-.76.54V83.59a.17.17,0,0,0-.17-.17h-1a.17.17,0,0,0-.17.17h0V90.9a.17.17,0,0,0,.17.15h1a.17.17,0,0,0,.17-.15V88.16a1.74,1.74,0,0,1,.51-1.32,1.81,1.81,0,0,1,1.33-.5,1.08,1.08,0,0,1,.87.29,1.78,1.78,0,0,1,.26,1.12v3.1a.17.17,0,0,0,.17.15h1a.17.17,0,0,0,.17-.15v-3.1a5.34,5.34,0,0,0-.11-1.24A1.74,1.74,0,0,0,143,85.86Z"/><path class="cls-7" d="M148.44,85.14a3.1,3.1,0,0,0-2.28.84,3.32,3.32,0,0,0,0,4.45,3.1,3.1,0,0,0,2.28.84,3.41,3.41,0,0,0,1.91-.53,2.74,2.74,0,0,0,1.12-1.47.17.17,0,0,0-.12-.21h-1.2a.17.17,0,0,0-.15.11,1.16,1.16,0,0,1-.56.62,2,2,0,0,1-1,.17,1.84,1.84,0,0,1-1.29-.45,1.43,1.43,0,0,1-.48-1h4.73a.17.17,0,0,0,.14-.09V88.2A3,3,0,0,0,150.7,86,3.1,3.1,0,0,0,148.44,85.14Zm0,1.24a1.89,1.89,0,0,1,1.18.36,1.44,1.44,0,0,1,.51.79h-3.41a1.55,1.55,0,0,1,.53-.79A1.89,1.89,0,0,1,148.44,86.38Z"/><path class="cls-7" d="M156.79,85.17h-.28a2.43,2.43,0,0,0-1.19.29,2.65,2.65,0,0,0-.64.5v-.45a.17.17,0,0,0-.17-.17h-1a.17.17,0,0,0-.17.17h0v5.42a.17.17,0,0,0,.17.15h1a.17.17,0,0,0,.17-.15V88.25a1.84,1.84,0,0,1,.45-1.27,1.55,1.55,0,0,1,1.41-.46l.34.08a.17.17,0,0,0,.21-.12V85.4a.17.17,0,0,0-.09-.14Z"/><path class="cls-7" d="M168.72,87a1.83,1.83,0,0,0,.54-.5,1.8,1.8,0,0,0,.31-1.08,1.84,1.84,0,0,0-.64-1.55,2.66,2.66,0,0,0-1.75-.51h-4.06a.17.17,0,0,0-.17.17h0v7.31a.17.17,0,0,0,.17.15H167a3.21,3.21,0,0,0,2.06-.56,2.12,2.12,0,0,0,.7-1.74,1.92,1.92,0,0,0-.4-1.25A1.74,1.74,0,0,0,168.72,87Zm-4.38.74H167a1.84,1.84,0,0,1,1.12.26,1,1,0,0,1,.31.81.76.76,0,0,1-.34.7,2.43,2.43,0,0,1-1.24.23h-2.56Zm3.61-1.55a2.25,2.25,0,0,1-1.16.22h-2.46V84.69H167a1.66,1.66,0,0,1,1,.22.79.79,0,0,1,.26.67.76.76,0,0,1-.34.68Z"/><path class="cls-7" d="M174.58,85.14a3.1,3.1,0,0,0-2.28.84,3.32,3.32,0,0,0,0,4.45,3.1,3.1,0,0,0,2.28.84,3.41,3.41,0,0,0,1.91-.53,2.74,2.74,0,0,0,1.12-1.47.17.17,0,0,0-.12-.21h-1.15a.17.17,0,0,0-.15.11,1.16,1.16,0,0,1-.56.62,2,2,0,0,1-1,.23,1.84,1.84,0,0,1-1.29-.45,1.43,1.43,0,0,1-.48-1h4.73a.17.17,0,0,0,.17-.17h0v-.19a3,3,0,0,0-.84-2.25A3.1,3.1,0,0,0,174.58,85.14Zm0,1.24a1.89,1.89,0,0,1,1.18.36,1.44,1.44,0,0,1,.51.79h-3.41a1.55,1.55,0,0,1,.53-.79A1.89,1.89,0,0,1,174.58,86.38Z"/><path class="cls-7" d="M185.62,89.94h-.14c-.25,0-.33,0-.36-.09a1.12,1.12,0,0,1-.08-.54V87.1a1.77,1.77,0,0,0-.64-1.55,3.5,3.5,0,0,0-2-.43,3.35,3.35,0,0,0-2,.51,2,2,0,0,0-.77,1.55.15.15,0,0,0,0,.12.23.23,0,0,0,.12,0h1a.17.17,0,0,0,.17-.15.82.82,0,0,1,.36-.68,2.18,2.18,0,0,1,1.15-.23,2.09,2.09,0,0,1,1,.17.51.51,0,0,1,.25.48c0,.37-.77.5-1.24.54h-.37a5.54,5.54,0,0,0-1.21.17,2,2,0,0,0-.6.22,1.84,1.84,0,0,0-.64.62,1.75,1.75,0,0,0,.39,2.17,2.62,2.62,0,0,0,1.64.46,3.52,3.52,0,0,0,1.39-.26,2.56,2.56,0,0,0,.81-.54,1,1,0,0,0,.28.42,1.55,1.55,0,0,0,1.15.23h.4a.17.17,0,0,0,.14-.15V90a.15.15,0,0,0,0-.12A.17.17,0,0,0,185.62,89.94Zm-1.89-1.55v.56a.91.91,0,0,1-.51.76,2.62,2.62,0,0,1-1.41.34,1.33,1.33,0,0,1-.77-.19.54.54,0,0,1-.25-.48.46.46,0,0,1,.22-.43,3.53,3.53,0,0,1,1.27-.28,9.4,9.4,0,0,0,1.07-.17Z"/><path class="cls-7" d="M192.8,85.29h-1a.17.17,0,0,0-.17.17h0v2.77a1.74,1.74,0,0,1-.51,1.32,1.81,1.81,0,0,1-1.33.5,1.08,1.08,0,0,1-.87-.31,1.8,1.8,0,0,1-.26-1.12v-3.1a.17.17,0,0,0-.17-.17h-1a.17.17,0,0,0-.17.17h0v3.1a5.24,5.24,0,0,0,.11,1.24,1.78,1.78,0,0,0,.36.71,1.92,1.92,0,0,0,.74.51,2.77,2.77,0,0,0,1,.17,2.85,2.85,0,0,0,2.08-.82v.5a.17.17,0,0,0,.17.15h1a.17.17,0,0,0,.17-.15V85.51a.17.17,0,0,0-.12-.21Z"/><path class="cls-7" d="M198.11,85.29H197V84.08a.17.17,0,0,0-.17-.17h-1a.17.17,0,0,0-.17.17h0v1.21h-.71a.17.17,0,0,0-.17.17h0v.85a.17.17,0,0,0,.17.17h.77v3.35a1.35,1.35,0,0,0,.4,1.05,1.72,1.72,0,0,0,1.18.36h.93a.15.15,0,0,0,.14-.15V90.2a.09.09,0,1,0-.14-.12h-.34a.9.9,0,0,1-.67-.08.53.53,0,0,1-.11-.37v-3.1h1.15a.17.17,0,0,0,.17-.17h0v-.85a.18.18,0,0,0-.29-.22Z"/><path class="cls-7" d="M205.18,85.29H204a.17.17,0,0,0-.15.11l-1.64,4.18-1.69-4.18a.17.17,0,0,0-.15-.11h-1.18a.1.1,0,1,0-.14.15l2.43,5.36a1.41,1.41,0,0,1-.36.67,1.07,1.07,0,0,1-.68.19h-.54a.15.15,0,0,0-.12,0,.17.17,0,0,0,0,.12v.91a.15.15,0,0,0,.14.15h.68a3,3,0,0,0,.74-.08,1.7,1.7,0,0,0,.57-.25,2.06,2.06,0,0,0,.5-.59,9.67,9.67,0,0,0,.57-1.15l2.4-5.38a.17.17,0,0,0-.1-.22h-.06Z"/><path class="cls-7" d="M214.7,83.43h-3.36a.17.17,0,0,0-.17.17h0v7.31a.17.17,0,0,0,.17.15h1a.17.17,0,0,0,.17-.15V88.06h2.17a3.36,3.36,0,0,0,2.12-.57,2.49,2.49,0,0,0,0-3.5A3.36,3.36,0,0,0,214.7,83.43Zm-2.17,1.24h1.83a2.91,2.91,0,0,1,1.55.26,1,1,0,0,1,.36.85.91.91,0,0,1-.37.84,3.1,3.1,0,0,1-1.55.26h-1.77Z"/><path class="cls-7" d="M222.7,85.17h-.28a2.43,2.43,0,0,0-1.19.29,2.65,2.65,0,0,0-.64.5v-.45a.17.17,0,0,0-.17-.17h-1a.17.17,0,0,0-.17.17h0v5.42a.17.17,0,0,0,.17.15h1a.17.17,0,0,0,.17-.15V88.25a1.84,1.84,0,0,1,.45-1.27,1.55,1.55,0,0,1,1.41-.46l.34.08a.17.17,0,0,0,.21-.12V85.4a.17.17,0,0,0-.09-.14Z"/><path class="cls-7" d="M227.19,85.14a3.07,3.07,0,0,0-2.32,5.28,3.64,3.64,0,0,0,4.65,0,3.28,3.28,0,0,0,0-4.45A3.22,3.22,0,0,0,227.19,85.14Zm0,4.88a1.84,1.84,0,0,1-1.36-.48,2,2,0,0,1,.08-2.7,1.83,1.83,0,0,1,1.36-.48,1.86,1.86,0,0,1,1.35.48,2,2,0,0,1,0,2.66,1.84,1.84,0,0,1-1.43.43Z"/><path class="cls-7" d="M235.43,85.2a3.1,3.1,0,0,0-1.25.25,2.6,2.6,0,0,0-.68.45v-.4a.17.17,0,0,0-.17-.17h-1a.17.17,0,0,0-.17.17h0v7.34a.17.17,0,0,0,.17.17h1a.17.17,0,0,0,.17-.17h0V90.51a2.71,2.71,0,0,0,.7.45,3,3,0,0,0,1.22.25,3,3,0,1,0,0-6Zm1.7,3a1.74,1.74,0,0,1-.48,1.3,1.84,1.84,0,0,1-1.33.46,1.81,1.81,0,0,1-1.33-.48,2,2,0,0,1,0-2.62,1.81,1.81,0,0,1,1.33-.48,1.84,1.84,0,0,1,1.33.46A1.74,1.74,0,0,1,237.14,88.2Z"/><path class="cls-7" d="M243.13,85.14a3.1,3.1,0,0,0-2.28.84,3.32,3.32,0,0,0,0,4.45,3.1,3.1,0,0,0,2.28.84,3.42,3.42,0,0,0,1.91-.53,2.73,2.73,0,0,0,1.12-1.47.1.1,0,1,0-.14-.15h-1.15a.17.17,0,0,0-.15.11,1.16,1.16,0,0,1-.56.62,2,2,0,0,1-1,.23,1.86,1.86,0,0,1-1.29-.45,1.43,1.43,0,0,1-.48-1H246a.17.17,0,0,0,.17-.17h0v-.19a3,3,0,0,0-.84-2.25A3.1,3.1,0,0,0,243.13,85.14Zm0,1.24a1.87,1.87,0,0,1,1.18.36,1.44,1.44,0,0,1,.53.79H241.4a1.55,1.55,0,0,1,.53-.79A1.89,1.89,0,0,1,243.13,86.38Z"/><path class="cls-7" d="M251.5,85.17h-.28a2.43,2.43,0,0,0-1.19.29,2.65,2.65,0,0,0-.64.5v-.45a.17.17,0,0,0-.17-.17h-1a.17.17,0,0,0-.17.17h0v5.42a.17.17,0,0,0,.17.15h1a.17.17,0,0,0,.17-.15V88.25a1.84,1.84,0,0,1,.45-1.27,1.55,1.55,0,0,1,1.41-.46l.34.08a.17.17,0,0,0,.21-.12V85.4a.17.17,0,0,0-.09-.14Z"/><path class="cls-7" d="M256.2,85.29H255V84.08a.17.17,0,0,0-.17-.17h-1a.17.17,0,0,0-.17.17h0v1.21h-.77a.17.17,0,0,0-.17.17h0v.85a.17.17,0,0,0,.17.17h.77v3.35a1.35,1.35,0,0,0,.4,1.05,1.72,1.72,0,0,0,1.18.36h.93a.15.15,0,0,0,.14-.15V90.2a.09.09,0,0,0-.14-.12h-.34a.9.9,0,0,1-.67-.08.53.53,0,0,1-.11-.37v-3.1h1.15a.17.17,0,0,0,.17-.17h0v-.85a.17.17,0,0,0-.23-.22Z"/><path class="cls-7" d="M263.28,85.29h-1.15a.17.17,0,0,0-.15.11l-1.64,4.18-1.69-4.18a.17.17,0,0,0-.2-.11h-1.18a.15.15,0,0,0-.14,0,.17.17,0,0,0,0,.15l2.43,5.36a1.41,1.41,0,0,1-.36.67,1.07,1.07,0,0,1-.68.19H258a.15.15,0,0,0-.12,0,.17.17,0,0,0,0,.12v.91a.15.15,0,0,0,.14.15h.68a3,3,0,0,0,.74-.08,1.7,1.7,0,0,0,.57-.25,2.08,2.08,0,0,0,.5-.59,9.3,9.3,0,0,0,.57-1.15l2.4-5.38a.17.17,0,0,0-.1-.22h-.06Z"/><path class="cls-7" d="M278.24,83.43h-1.55a.17.17,0,0,0-.15.09l-2.74,6-2.68-6a.17.17,0,0,0-.15-.09h-1.55a.17.17,0,0,0-.17.17h0v7.31a.17.17,0,0,0,.17.15h1a.17.17,0,0,0,.17-.15h0v-5.7L273.19,91a.15.15,0,0,0,.15.09h1.05a.17.17,0,0,0,.15-.09l2.63-5.84V91a.17.17,0,0,0,.17.17h1a.17.17,0,0,0,.17-.15V83.59a.17.17,0,0,0-.29-.15Z"/><path class="cls-7" d="M286.67,89.94h-.14c-.23,0-.33,0-.36-.09a1.13,1.13,0,0,1-.08-.54V87.1a1.77,1.77,0,0,0-.64-1.55,3.5,3.5,0,0,0-2-.43,3.35,3.35,0,0,0-2,.51,2,2,0,0,0-.77,1.55.15.15,0,0,0,0,.12.19.19,0,0,0,.12,0h1a.17.17,0,0,0,.15-.15.82.82,0,0,1,.36-.68,2.18,2.18,0,0,1,1.15-.23,2.09,2.09,0,0,1,1,.17.51.51,0,0,1,.25.48c0,.37-.77.5-1.24.54h-.37a5.7,5.7,0,0,0-1.21.17,2,2,0,0,0-.6.22,1.84,1.84,0,0,0-.64.62,1.74,1.74,0,0,0,.39,2.17,2.62,2.62,0,0,0,1.64.46,3.52,3.52,0,0,0,1.39-.26,2.56,2.56,0,0,0,.81-.54,1,1,0,0,0,.28.42,1.55,1.55,0,0,0,1.15.23h.4a.17.17,0,0,0,.14-.15V90a.15.15,0,0,0,0-.12A.17.17,0,0,0,286.67,89.94Zm-1.89-1.55v.56a.91.91,0,0,1-.51.76,2.62,2.62,0,0,1-1.41.34,1.33,1.33,0,0,1-.77-.19.54.54,0,0,1-.25-.48.46.46,0,0,1,.22-.43,3.53,3.53,0,0,1,1.27-.28,9.37,9.37,0,0,0,1.07-.17Z"/><path class="cls-7" d="M291.89,85.17h-.28a2.43,2.43,0,0,0-1.19.29,2.65,2.65,0,0,0-.64.5v-.45a.17.17,0,0,0-.17-.17h-1a.17.17,0,0,0-.17.17h0v5.42a.17.17,0,0,0,.17.15h1a.17.17,0,0,0,.17-.15V88.25a1.84,1.84,0,0,1,.45-1.27,1.55,1.55,0,0,1,1.41-.46l.34.08a.17.17,0,0,0,.21-.12V85.4a.17.17,0,0,0-.09-.14Z"/><path class="cls-7" d="M296.73,87.57l2.45-2a.17.17,0,0,0-.11-.29H297.5l-2.59,2.15V83.59a.17.17,0,0,0-.17-.17h-1a.17.17,0,0,0-.17.17h0V90.9a.17.17,0,0,0,.17.15h1a.17.17,0,0,0,.17-.15V89l.81-.65L297.78,91a.15.15,0,0,0,.12,0h1.33a.15.15,0,0,0,.12-.26Z"/><path class="cls-7" d="M303,85.14a3.1,3.1,0,0,0-2.28.84,3.32,3.32,0,0,0,0,4.45,3.1,3.1,0,0,0,2.28.84,3.42,3.42,0,0,0,1.91-.53,2.73,2.73,0,0,0,1.12-1.47.1.1,0,0,0-.14-.15h-1.15a.17.17,0,0,0-.15.11,1.16,1.16,0,0,1-.56.62,2,2,0,0,1-1,.23,1.86,1.86,0,0,1-1.29-.45,1.43,1.43,0,0,1-.48-1H306a.17.17,0,0,0,.17-.17h0v-.19a3,3,0,0,0-.84-2.25A3.1,3.1,0,0,0,303,85.14Zm0,1.24a1.87,1.87,0,0,1,1.18.36,1.44,1.44,0,0,1,.53.79h-3.41a1.55,1.55,0,0,1,.53-.79A1.89,1.89,0,0,1,303,86.38Z"/><path class="cls-7" d="M311.12,85.29H310V84.08a.17.17,0,0,0-.17-.17h-1a.17.17,0,0,0-.17.17h0v1.21h-.77a.17.17,0,0,0-.17.17h0v.85a.17.17,0,0,0,.17.17h.77v3.35a1.35,1.35,0,0,0,.4,1.05,1.72,1.72,0,0,0,1.18.36h.93a.15.15,0,0,0,.14-.15V90.2a.09.09,0,0,0-.14-.12h-.34a.9.9,0,0,1-.67-.08.53.53,0,0,1-.11-.37v-3.1h1.08a.17.17,0,0,0,.17-.17h0v-.85a.17.17,0,0,0-.12-.21Z"/><rect class="cls-7" x="312.89" y="83.43" width="1.3" height="1.52" rx="0.17" ry="0.17"/><path class="cls-7" d="M313.06,85.29h1a.17.17,0,0,1,.17.17h0v5.42A.15.15,0,0,1,314,91h-1a.17.17,0,0,1-.17-.17h0V85.45A.17.17,0,0,1,313.06,85.29Z"/><path class="cls-7" d="M321.52,85.86a1.83,1.83,0,0,0-.74-.51,2.87,2.87,0,0,0-1-.17,3.1,3.1,0,0,0-1.32.28,3,3,0,0,0-.76.54v-.51a.17.17,0,0,0-.15-.17h-1a.17.17,0,0,0-.17.17h0v5.42a.17.17,0,0,0,.17.15h1a.17.17,0,0,0,.17-.15V88.16a1.74,1.74,0,0,1,.51-1.32,1.83,1.83,0,0,1,1.33-.5,1.08,1.08,0,0,1,.87.29,1.78,1.78,0,0,1,.26,1.12v3.1a.15.15,0,0,0,.15.15h1a.17.17,0,0,0,.17-.15v-3.1a5.35,5.35,0,0,0-.11-1.24A1.72,1.72,0,0,0,321.52,85.86Z"/><path class="cls-7" d="M329.9,85.29h-1a.17.17,0,0,0-.15.17v.42a2.26,2.26,0,0,0-.62-.43,3,3,0,0,0-1.32-.28,3.1,3.1,0,0,0-2.2.84,3.18,3.18,0,0,0,0,4.34,2.79,2.79,0,0,0,.79.54h-1.12a.17.17,0,0,0-.12,0,.15.15,0,0,0,0,.12,1.84,1.84,0,0,0,.82,1.43,3.42,3.42,0,0,0,1.94.48,3.66,3.66,0,0,0,2.42-.67,2.68,2.68,0,0,0,.77-2.12V85.48a.17.17,0,0,0-.15-.19ZM327,89.94a1.87,1.87,0,0,1-1.36-.48,1.77,1.77,0,0,1-.48-1.33,1.8,1.8,0,0,1,.5-1.33,2.17,2.17,0,0,1,2.73,0,2,2,0,0,1,0,2.66A1.87,1.87,0,0,1,327,89.94Zm-.14,1.19a3,3,0,0,0,1.22-.25,2.71,2.71,0,0,0,.68-.45,1.27,1.27,0,0,1-.4.93,2.35,2.35,0,0,1-1.46.34,2,2,0,0,1-1-.2.73.73,0,0,1-.37-.54.17.17,0,0,0,0-.09,3.45,3.45,0,0,0,1.29.34Z"/><path class="cls-8" d="M65.89,15.69A39.79,39.79,0,1,0,94.32,27.47,40.21,40.21,0,0,0,65.89,15.69ZM95.45,55.85A29.56,29.56,0,1,1,86.79,35,29.56,29.56,0,0,1,95.45,55.85Z"/><path class="cls-9" d="M48.49,38.45V73.21H83.23V38.45ZM59.12,62.56V49.1h13.4V62.56Z"/></svg>